<?xml version="1.0" standalone="no"?>
<!DOCTYPE svg PUBLIC "-//W3C//DTD SVG 20010904//EN"
 "http://www.w3.org/TR/2001/REC-SVG-20010904/DTD/svg10.dtd">
<svg version="1.0" xmlns="http://www.w3.org/2000/svg"
 width="630.000000pt" height="630.000000pt" viewBox="0 0 630.000000 630.000000"
 preserveAspectRatio="xMidYMid meet">
<metadata>
Created by potrace 1.16, written by Peter Selinger 2001-2019
</metadata>
<g transform="translate(0.000000,630.000000) scale(0.100000,-0.100000)"
fill="#000000" stroke="none">
<path d="M0 3150 l0 -3150 3150 0 3150 0 0 3150 0 3150 -3150 0 -3150 0 0
-3150z m3425 2535 c269 -72 479 -297 540 -580 20 -91 17 -283 -4 -308 -6 -8
-28 -18 -47 -22 -20 -3 -43 -9 -51 -12 -13 -5 -15 -2 -8 13 37 88 41 271 8
384 l-16 55 -8 -34 c-9 -42 -25 -53 -66 -46 -25 5 -34 1 -42 -14 -8 -14 -8
-22 0 -26 6 -4 8 -13 5 -20 -3 -8 2 -19 10 -25 15 -14 19 -75 5 -84 -5 -3 -12
-29 -16 -58 -8 -66 -48 -189 -61 -189 -5 0 -15 9 -23 21 -12 18 -12 21 0 18 9
-2 15 8 17 30 2 18 8 30 13 27 5 -4 9 -2 9 3 0 6 -7 12 -15 16 -8 3 -15 10
-15 16 0 6 4 8 10 5 5 -3 7 0 4 9 -7 19 -32 25 -61 15 -15 -6 -21 -4 -19 4 1
7 1 9 -1 5 -7 -12 -33 -10 -33 2 0 6 -4 10 -10 10 -5 0 -7 -7 -3 -16 5 -14 3
-15 -16 -5 -12 7 -18 17 -15 23 4 6 3 8 -3 5 -10 -7 -137 56 -129 64 2 2 -5 5
-17 5 -12 1 -56 9 -97 19 -57 13 -101 16 -182 12 -58 -3 -109 -3 -112 0 -3 3
7 17 22 30 23 20 25 25 12 33 -8 5 -23 10 -32 10 -10 0 -22 10 -29 21 -11 22
-11 22 -36 -5 -14 -15 -31 -25 -39 -22 -23 9 -26 -14 -4 -32 17 -14 20 -24 15
-45 -6 -22 -10 -25 -21 -16 -20 16 -54 74 -59 98 -3 19 -1 20 18 10 20 -9 20
-9 5 4 -10 8 -18 22 -18 31 0 10 -5 14 -10 11 -6 -4 -8 -10 -6 -14 3 -4 0 -13
-6 -21 -8 -12 -9 -12 -4 3 3 9 2 17 -3 17 -14 0 -88 78 -110 115 -11 19 -16
35 -11 35 6 0 10 -6 10 -12 0 -7 11 -1 25 13 22 21 24 29 16 51 -10 26 -6 38
11 38 5 0 7 -8 3 -19 -4 -15 0 -20 25 -23 33 -5 41 7 10 15 -15 4 -20 14 -20
39 0 21 -3 28 -8 20 -5 -8 -16 -10 -27 -6 -14 6 -16 4 -11 -7 4 -8 0 -5 -8 5
-15 19 -16 19 -36 1 -11 -10 -20 -27 -20 -37 0 -11 -4 -17 -8 -14 -5 3 -9 -1
-9 -9 0 -10 8 -9 30 7 l29 21 -13 -21 c-7 -11 -17 -18 -22 -15 -5 3 -6 -4 -2
-17 6 -19 5 -21 -6 -11 -8 6 -23 18 -34 25 -19 14 -19 15 14 63 121 172 288
281 496 322 68 14 247 6 320 -14z m1490 -840 c33 -9 101 -37 150 -60 175 -85
325 -271 381 -476 25 -90 25 -300 1 -389 -25 -90 -88 -214 -142 -280 -89 -108
-239 -214 -320 -224 -16 -3 -52 -14 -78 -26 -61 -27 -203 -37 -305 -21 -73 11
-226 64 -237 81 -9 14 63 101 98 120 18 10 47 21 64 24 18 4 35 11 38 15 2 4
60 6 129 3 113 -4 128 -3 174 18 46 21 50 25 40 44 -8 14 -8 21 0 24 65 21
229 171 215 196 -3 6 -3 8 2 4 12 -11 45 37 44 64 0 22 -1 22 -9 3 -6 -16 -8
-13 -8 15 0 19 -4 51 -10 70 -8 30 -10 31 -11 10 -2 -33 -16 -56 -25 -41 -4 6
-2 11 3 11 6 0 11 4 11 8 0 12 -150 5 -165 -8 -9 -8 -17 -7 -28 5 -18 18 -31
20 -21 3 5 -8 2 -9 -10 -5 -14 6 -15 3 -5 -14 8 -16 17 -19 37 -15 20 5 23 4
12 -4 -13 -8 -13 -10 1 -10 9 0 22 -7 29 -15 10 -12 10 -15 -4 -15 -9 0 -16 4
-16 9 0 5 -12 13 -27 17 -35 11 -203 12 -203 2 0 -14 -37 -8 -50 7 -10 12 -15
13 -21 4 -10 -17 -40 -20 -58 -6 -12 9 -13 9 -7 0 4 -8 2 -13 -7 -13 -7 0 -14
7 -14 15 0 8 6 15 13 15 7 0 16 5 20 12 5 7 2 9 -7 3 -8 -4 -1 4 16 18 16 14
34 23 39 20 5 -4 6 -1 2 5 -8 13 50 59 68 54 6 -2 8 -1 5 3 -4 3 3 16 15 29
64 67 72 113 28 162 -26 29 -33 31 -142 43 -180 19 -180 19 -180 50 0 14 -7
38 -14 53 -16 30 -14 33 24 36 14 1 66 9 115 17 l90 14 -97 -3 c-69 -2 -96 0
-91 8 4 6 -1 5 -10 -3 -9 -7 -37 -14 -61 -15 -24 0 -42 -4 -40 -8 2 -3 -15 -9
-38 -13 -24 -3 -51 -9 -62 -12 -12 -3 -16 -1 -12 6 4 6 0 11 -11 11 -10 0 -25
5 -33 10 -11 7 -5 9 20 5 27 -4 30 -3 15 4 -11 5 -15 10 -8 10 6 1 9 10 6 21
-3 11 -9 17 -14 14 -5 -3 -7 -9 -5 -13 3 -3 -7 -7 -22 -6 -17 0 -27 -5 -27
-14 0 -18 -21 -26 -30 -12 -4 7 0 8 11 4 11 -4 15 -3 11 4 -4 6 13 29 37 50
55 48 269 198 363 254 l68 41 115 -5 c63 -3 142 -13 175 -22z m-3396 -50 c23
-8 54 -24 68 -35 14 -11 30 -17 36 -13 6 3 7 1 3 -5 -5 -9 -13 -9 -26 -2 -26
14 -33 12 -18 -4 13 -14 37 -14 60 0 6 4 8 3 4 -4 -4 -6 1 -10 11 -10 26 2
124 -56 217 -129 44 -35 96 -75 114 -89 17 -13 32 -28 32 -32 0 -10 -209 -53
-241 -50 -20 2 -25 6 -21 21 3 14 1 18 -9 15 -8 -2 -15 -14 -17 -26 -2 -14 -8
-20 -15 -15 -7 4 -5 -2 3 -12 16 -20 19 -20 -40 3 -13 5 -13 3 -1 -11 16 -21
18 -19 -39 -47 -25 -12 -72 -38 -104 -58 -55 -33 -60 -34 -72 -17 -12 17 -14
16 -25 -9 -11 -23 -36 -33 -71 -27 -15 2 -8 -18 8 -27 14 -8 10 -12 -20 -22
-20 -6 -36 -16 -36 -22 0 -6 -7 -8 -15 -5 -8 4 -17 1 -21 -5 -5 -7 -2 -8 6 -3
9 5 11 4 6 -4 -10 -15 -32 2 -41 30 -4 11 -16 30 -28 43 -19 20 -87 139 -87
152 0 2 5 4 11 4 5 0 7 -5 3 -11 -17 -29 17 0 38 31 29 42 68 65 81 47 6 -8 7
-6 3 6 -3 10 -1 28 5 39 6 12 7 18 1 14 -13 -8 -22 17 -15 46 3 13 1 18 -4 12
-12 -15 -51 -24 -55 -12 -7 20 -49 -12 -64 -48 -8 -19 -19 -34 -25 -34 -12 0
-1 -43 12 -48 5 -2 9 -10 9 -18 0 -8 -12 0 -29 18 l-29 33 26 48 c52 95 177
215 292 280 53 31 64 32 119 12z m1719 -232 c17 -112 17 -114 -40 -174 -35
-36 -73 -93 -112 -168 -32 -63 -54 -111 -48 -107 6 3 41 44 77 90 56 71 97
106 122 106 3 0 3 -19 0 -42 l-6 -42 34 39 33 40 27 -25 c15 -14 36 -43 46
-65 10 -22 19 -34 19 -27 0 22 -26 65 -58 96 -29 27 -30 30 -15 52 11 18 25
24 49 24 l34 0 2 53 1 52 6 -50 7 -50 8 49 c5 30 5 51 -1 55 -7 4 -6 18 1 40
l12 34 11 -39 c7 -22 19 -74 28 -117 14 -70 14 -87 1 -163 -8 -46 -18 -89 -21
-94 -14 -22 12 -8 47 27 l38 37 -6 -57 c-4 -31 -3 -57 1 -57 4 0 20 9 36 21
l29 20 0 -163 c0 -186 -6 -217 -62 -310 -38 -65 -42 -68 -78 -68 -42 0 -55
-12 -120 -108 -27 -40 -47 -57 -95 -79 -57 -27 -67 -28 -215 -28 l-155 0 -95
38 c-52 21 -101 39 -108 39 -6 1 -10 3 -7 6 2 2 -11 23 -29 46 -18 22 -45 70
-60 106 -16 36 -37 79 -47 96 -19 32 -25 64 -11 64 4 1 30 7 57 15 40 11 44
14 20 14 -16 0 -49 -4 -73 -8 -23 -5 -40 -6 -37 -3 3 3 -6 17 -20 32 -24 25
-24 26 -4 27 31 3 33 8 12 39 l-18 28 25 -17 c41 -29 55 -22 31 16 -12 17 -33
54 -47 80 -15 29 -29 45 -36 41 -6 -4 -8 -3 -5 3 4 6 2 25 -4 42 -6 17 -8 39
-3 49 4 9 6 21 5 27 -1 5 6 1 17 -9 20 -17 22 -17 61 9 36 24 70 27 56 5 -3
-5 -1 -11 5 -15 5 -3 10 3 10 14 0 12 5 21 10 21 15 0 12 -38 -6 -90 -20 -57
-12 -126 22 -197 25 -52 26 -53 67 -52 l42 2 -40 6 c-35 5 -43 12 -62 49 -50
99 -37 212 27 245 32 17 33 18 8 14 -22 -3 -28 0 -28 13 0 13 6 16 25 13 13
-3 30 -11 36 -19 6 -8 23 -14 38 -14 14 0 61 -20 105 -45 43 -25 81 -45 85
-45 17 2 -171 163 -217 187 -64 34 -64 34 9 180 51 103 82 146 74 103 -7 -35
-8 -241 -1 -247 3 -4 7 0 7 8 1 8 6 -10 13 -40 l11 -55 151 190 c131 163 227
265 239 253 2 -2 -13 -31 -32 -64 -44 -73 -133 -250 -133 -261 1 -5 24 36 53
91 57 110 139 245 148 245 3 0 11 -35 17 -77z m1166 -89 c25 -24 22 -128 -4
-154 -11 -11 -29 -20 -40 -20 -11 0 -20 -4 -20 -10 0 -6 9 -6 25 0 29 11 29
11 13 -43 -9 -28 -21 -44 -42 -54 -21 -10 -24 -13 -8 -9 25 5 26 -3 12 -55 -7
-26 -20 -41 -43 -53 -17 -8 -26 -16 -19 -16 7 0 23 5 35 12 12 6 34 11 49 10
55 -4 82 12 310 196 62 49 98 39 98 -26 0 -28 -9 -44 -50 -85 -42 -42 -53 -48
-77 -43 -25 6 -26 5 -10 -8 17 -13 16 -15 -14 -41 -23 -19 -41 -26 -60 -23
-15 3 -26 1 -23 -4 3 -4 12 -8 20 -8 12 0 11 -6 -7 -31 -19 -27 -26 -30 -61
-27 -30 3 -36 1 -24 -7 21 -16 173 -16 301 -1 115 14 145 9 145 -23 0 -23 -26
-46 -73 -66 -34 -14 -40 -14 -70 1 -28 15 -30 15 -19 1 12 -14 9 -17 -22 -23
-25 -4 -42 -2 -53 7 -14 12 -16 12 -9 0 19 -30 -45 -42 -77 -13 -16 13 -19 14
-15 2 2 -8 18 -22 34 -30 16 -8 45 -31 65 -51 20 -19 68 -52 108 -73 71 -37
82 -51 59 -74 -27 -27 -107 3 -109 41 -1 18 -2 19 -6 4 -3 -11 -10 -16 -20
-13 -8 3 -19 6 -23 6 -5 0 -17 12 -25 28 -14 23 -16 24 -12 5 3 -14 0 -23 -7
-23 -7 0 -21 -9 -32 -21 -68 -75 -183 -76 -265 -2 -42 38 -48 53 -22 53 9 0
14 2 11 5 -3 3 -33 1 -66 -4 -77 -12 -129 1 -179 45 -33 29 -35 33 -17 34 20
0 42 19 59 50 5 8 -3 3 -18 -12 -20 -22 -35 -28 -68 -28 -40 0 -41 1 -34 27
l7 28 -22 -28 c-24 -30 -56 -34 -109 -16 -18 7 -31 18 -31 28 0 21 67 56 125
66 82 14 165 77 204 153 10 20 51 119 91 220 46 117 79 187 93 197 26 18 22
18 41 -1z m-3356 -292 c16 -26 33 -59 37 -72 6 -19 4 -22 -10 -16 -12 4 -16 2
-12 -8 4 -9 0 -12 -12 -9 -11 3 -21 -2 -24 -11 -10 -24 12 -125 40 -186 23
-51 81 -135 89 -127 2 1 -3 25 -11 52 -17 54 -20 94 -6 80 5 -6 20 -32 35 -58
35 -64 58 -98 63 -94 2 2 -12 30 -32 62 -37 62 -75 154 -80 193 -2 15 2 22 13
22 10 0 24 -10 31 -22 27 -43 324 -523 344 -556 11 -18 18 -35 16 -37 -2 -2
-34 9 -71 25 -255 109 -429 353 -454 639 -6 70 1 171 11 171 2 0 17 -22 33
-48z m2704 -83 c42 -23 61 -127 38 -211 -16 -57 -86 -126 -144 -143 -48 -15
-48 -15 -42 8 3 12 6 28 6 35 0 6 12 12 28 12 30 0 92 34 92 51 0 6 -14 -1
-31 -15 -18 -15 -43 -26 -60 -26 -32 0 -37 11 -13 31 13 10 17 10 25 -2 7 -12
9 -11 9 3 0 20 -16 32 -25 18 -11 -18 -25 -10 -25 15 0 17 4 23 14 19 8 -3 23
-1 33 5 16 9 15 10 -9 11 -29 0 -33 6 -22 34 7 19 30 21 37 4 4 -8 6 -7 6 4 1
9 -5 18 -11 21 -19 7 4 41 30 45 16 3 23 -4 31 -30 6 -24 9 -27 10 -11 1 31
-9 53 -26 53 -19 0 -12 20 11 34 14 9 21 6 37 -13 13 -16 19 -19 19 -8 0 22
-26 39 -52 35 -15 -2 -37 -24 -65 -66 l-43 -64 0 55 c0 49 3 58 31 81 32 28
76 34 111 15z m-1328 -316 c28 -57 28 -58 4 -35 -26 24 -67 29 -86 10 -7 -7
-12 -35 -12 -62 l0 -51 18 34 c23 43 36 41 42 -6 3 -25 8 -34 13 -25 12 17 27
5 44 -35 10 -24 19 -33 29 -29 20 8 13 -14 -8 -28 -17 -10 -39 -3 -88 31 l-25
17 19 -22 c33 -38 101 -65 145 -57 37 6 41 4 55 -23 14 -27 14 -31 0 -36 -45
-17 -156 10 -203 50 -16 14 -42 50 -57 80 -44 91 -23 195 47 231 13 7 26 13
29 13 3 0 18 -26 34 -57z m1604 -38 c15 -56 79 -128 142 -160 44 -22 127 -42
198 -47 l34 -3 -31 -43 c-39 -53 -140 -128 -194 -144 -30 -8 -62 -32 -112 -83
-38 -39 -92 -88 -119 -109 -27 -22 -56 -57 -67 -80 -21 -45 -24 -70 -9 -61 6
3 10 2 10 -4 0 -17 -56 -41 -97 -41 -40 0 -124 42 -156 78 -17 19 -17 23 -1
86 9 36 20 66 25 66 5 0 9 7 9 17 0 9 3 13 6 10 8 -8 52 26 72 54 13 18 9 18
-38 -6 -29 -14 -54 -25 -56 -23 -2 3 1 19 6 38 12 42 9 45 -20 20 -12 -11 -31
-22 -41 -25 -11 -4 -19 -11 -19 -16 0 -5 -5 -9 -11 -9 -22 0 -4 149 26 222 24
61 31 69 63 78 38 10 78 13 54 3 -6 -2 -9 -10 -5 -15 3 -6 5 -28 5 -50 -1 -21
0 -38 2 -38 2 0 15 24 30 53 32 64 42 77 83 105 20 14 34 19 38 12 4 -6 9 -45
13 -88 l6 -77 17 107 c13 84 24 118 50 162 44 73 70 76 87 11z m-268 -97 l45
-19 -25 -19 c-33 -26 -75 -27 -65 -2 12 32 10 37 -18 40 -35 4 -49 -7 -83 -66
-69 -124 -90 -216 -74 -334 20 -147 52 -207 137 -258 88 -54 160 -48 241 19
20 18 21 24 13 63 -9 37 -8 46 9 62 11 11 21 18 23 15 3 -2 7 -43 11 -90 l7
-86 -66 -97 c-60 -88 -65 -98 -47 -103 25 -6 37 -34 20 -44 -7 -4 -54 -7 -105
-6 l-93 1 33 34 32 35 -30 -6 c-62 -11 -143 -48 -183 -83 -32 -27 -49 -35 -73
-32 l-31 3 45 34 c44 33 131 130 123 138 -2 2 -64 -32 -139 -76 l-135 -81 -57
12 -57 11 7 34 c7 40 -7 43 -58 13 -29 -17 -39 -18 -68 -8 -19 6 -38 18 -43
26 -4 7 -22 20 -40 27 -26 11 -37 27 -68 102 -39 91 -58 154 -42 140 5 -5 32
-52 59 -105 28 -53 56 -97 64 -97 9 0 26 35 46 97 18 53 55 143 83 200 51 103
234 391 265 416 9 8 26 12 37 10 21 -3 21 -4 -10 -43 -37 -46 -180 -281 -180
-296 0 -12 38 -3 109 25 l54 22 54 158 c29 88 61 165 71 173 9 7 40 27 67 43
53 31 59 31 135 -2z m-1630 -178 c-61 -52 -239 -110 -336 -110 -25 0 -36 7
-53 32 -14 24 -17 35 -8 39 36 20 305 65 397 68 l35 0 -35 -29z m456 -65 c17
-51 17 -57 -2 -22 -8 15 -20 27 -27 27 -8 0 -9 -3 -1 -8 17 -11 36 -51 29 -62
-3 -6 -2 -10 4 -10 5 0 12 6 14 13 3 7 6 5 6 -5 1 -10 -3 -18 -9 -18 -5 0 -10
-10 -9 -22 0 -22 1 -22 9 -3 6 15 9 16 9 4 1 -8 12 -26 26 -39 l25 -24 -20
-21 c-13 -13 -23 -42 -27 -73 -3 -32 -11 -52 -18 -52 -16 0 -25 56 -11 70 5 5
6 10 2 10 -10 0 -35 -31 -36 -43 0 -5 5 -5 10 -2 6 3 10 2 10 -4 0 -5 -16 -8
-37 -5 -29 3 -33 2 -18 -5 17 -8 18 -10 3 -10 -10 -1 -18 -8 -18 -17 0 -8 4
-13 8 -10 5 3 6 -8 4 -24 -5 -37 23 -123 59 -181 29 -46 37 -83 20 -94 -21
-13 -83 154 -101 272 -15 96 -6 221 22 311 32 104 50 116 74 47z m134 -26 c30
-12 85 -24 122 -28 51 -4 65 -9 59 -19 -4 -7 -31 -13 -66 -14 -32 -1 -52 -4
-44 -7 8 -3 15 -13 17 -22 2 -12 -8 -18 -35 -23 -21 -3 -50 -8 -66 -11 -41 -8
-78 20 -75 59 1 26 23 86 31 86 1 0 27 -9 57 -21z m547 -16 c-3 -5 -23 -38
-46 -75 -50 -83 -100 -183 -131 -263 -28 -74 -27 -72 -72 -80 l-38 -7 -41 83
c-33 69 -39 91 -35 125 8 63 23 94 45 94 25 0 36 16 16 24 -18 7 -19 23 -2 55
11 22 19 24 110 28 53 3 97 2 97 -1 0 -3 -18 -15 -41 -26 -23 -12 -39 -23 -37
-26 3 -2 39 14 82 36 74 39 102 48 93 33z m-1533 -290 c13 -21 79 -128 146
-237 l122 -200 -15 -31 c-8 -17 -11 -38 -7 -46 4 -8 10 -38 13 -67 5 -44 36
-116 37 -87 1 6 10 -7 21 -28 11 -21 17 -42 14 -47 -3 -5 0 -7 8 -4 18 7 27
-7 32 -49 4 -30 3 -31 -8 -10 l-12 23 -13 -21 c-8 -12 -16 -18 -20 -14 -3 3 0
10 7 14 11 7 10 14 -4 37 -9 16 -14 21 -11 12 4 -14 -1 -18 -22 -18 -21 0 -24
2 -12 10 11 7 12 10 2 10 -8 0 -22 10 -33 23 -15 18 -18 19 -19 5 0 -24 -30
-50 -52 -45 -10 3 -16 1 -12 -4 3 -5 -3 -9 -13 -9 -15 -1 -13 -5 10 -25 47
-42 37 -55 -43 -54 -39 1 -68 5 -64 10 3 5 -15 9 -40 9 -25 0 -47 -4 -50 -9
-4 -5 -23 -5 -47 2 -24 6 -44 6 -48 1 -9 -13 -77 -11 -155 6 -60 12 -70 18
-78 41 -6 17 -15 26 -23 23 -7 -3 -20 4 -28 16 -10 15 -17 18 -22 10 -4 -7 -1
-16 6 -21 8 -5 9 -9 4 -9 -6 0 -16 5 -22 11 -9 9 -10 6 -6 -10 3 -12 9 -24 14
-27 5 -3 9 -17 9 -32 1 -65 85 -185 178 -251 40 -28 148 -71 179 -71 17 0 23
-6 23 -21 0 -20 -4 -21 -51 -17 -29 3 -45 2 -37 -3 7 -5 24 -9 38 -9 36 0 46
-10 65 -58 10 -23 21 -42 26 -42 4 0 16 19 26 42 18 41 21 42 93 58 41 10 83
20 92 24 14 6 25 -10 62 -86 25 -52 46 -99 46 -106 0 -27 20 -8 56 54 21 36
64 89 95 118 61 57 188 131 201 118 12 -12 -48 -100 -113 -164 -256 -250 -645
-289 -938 -93 -150 99 -272 273 -317 450 -27 104 -24 276 5 380 77 274 309
491 576 540 101 19 102 19 129 -22z m2866 22 c0 -21 -65 -97 -75 -87 -3 4 -3
-1 0 -9 3 -8 -1 -29 -10 -45 -8 -16 -15 -36 -15 -44 0 -8 -18 -66 -39 -128
-39 -112 -73 -167 -98 -158 -7 3 -13 -1 -13 -10 0 -9 -5 -12 -12 -8 -6 4 -8 3
-5 -3 9 -14 -28 -60 -53 -68 -11 -4 -18 -11 -15 -16 4 -5 -3 -9 -13 -9 -11 0
-25 -7 -32 -15 -18 -21 -33 -19 -60 10 -13 14 -27 25 -31 25 -15 0 -101 63
-107 78 -3 9 14 54 38 101 35 69 63 105 139 181 79 79 111 103 182 138 98 48
219 85 219 67z m-2607 -24 c105 -36 194 -91 270 -165 80 -77 152 -179 143
-201 -3 -8 -24 -19 -48 -25 -37 -11 -44 -10 -53 5 -41 69 -69 81 -106 44 -18
-18 -23 -19 -34 -8 -20 22 -238 369 -231 369 1 0 28 -9 59 -19z m2969 -2 c188
-63 341 -197 427 -373 51 -106 70 -179 77 -301 16 -250 -86 -477 -286 -637
-60 -48 -169 -103 -255 -130 -95 -30 -299 -32 -395 -4 -126 36 -300 137 -300
174 0 8 5 44 11 79 13 76 1 165 -34 235 -25 51 -15 53 33 6 14 -13 84 -68 157
-123 73 -54 129 -103 126 -108 -3 -6 -2 -8 3 -4 5 3 28 -8 52 -24 45 -30 67
-36 77 -19 3 6 32 10 63 10 59 0 127 13 174 31 24 10 26 14 16 32 -8 15 -8 22
0 25 60 20 222 164 222 197 0 6 9 20 20 30 21 19 28 51 9 39 -7 -4 -9 0 -5 13
4 11 0 35 -8 54 -11 25 -16 29 -16 14 -1 -11 -4 -15 -7 -8 -3 8 -19 11 -46 8
-23 -3 -72 -7 -109 -9 -37 -3 -72 -8 -78 -11 -16 -10 -3 -22 32 -29 39 -8 82
-36 56 -36 -9 0 -18 5 -20 12 -3 9 -12 9 -37 0 -18 -7 -37 -9 -42 -6 -16 10
-84 11 -96 2 -14 -11 -36 -1 -28 13 4 5 -2 9 -12 10 -16 0 -16 1 1 8 11 4 15
10 10 13 -12 8 -46 -17 -36 -27 4 -5 -1 -5 -12 -1 -10 3 -25 1 -33 -6 -12 -10
-18 -9 -28 5 -18 24 -26 21 -21 -9 l5 -26 -33 26 c-19 14 -36 22 -40 19 -3 -4
-6 -2 -6 4 0 6 -9 13 -21 16 -14 4 -18 10 -13 19 4 7 4 10 -1 6 -10 -10 -67
20 -60 32 3 5 0 12 -6 16 -8 4 -9 3 -5 -4 4 -7 3 -12 -3 -12 -27 0 -20 26 15
56 21 19 35 34 31 34 -4 0 11 16 33 36 21 19 42 44 45 55 4 11 11 16 17 13 7
-4 8 -2 4 5 -4 6 5 28 22 49 84 109 100 139 108 217 2 22 17 66 34 98 17 32
28 62 25 67 -15 24 82 150 116 150 5 0 37 -9 71 -21z m-1121 -369 c20 -6 44
-19 53 -29 17 -18 17 -23 -4 -88 l-22 -68 20 -65 c10 -35 24 -66 29 -67 11 -4
33 98 33 154 0 51 -24 120 -52 150 l-21 23 36 0 c48 0 71 -31 92 -128 25 -112
25 -111 40 -77 l13 30 20 -47 c35 -79 52 -148 52 -210 0 -45 3 -58 15 -58 8 0
15 -9 15 -19 0 -19 -2 -19 -37 -5 -42 18 -126 22 -197 11 l-48 -9 3 81 c2 44
1 77 -3 73 -3 -4 -21 -48 -38 -99 -18 -50 -38 -94 -46 -97 -18 -7 -18 -6 6 54
30 75 25 77 -28 13 -58 -69 -69 -78 -103 -87 -42 -9 -85 11 -103 49 -23 49
-56 210 -56 278 0 61 12 93 63 164 22 32 42 46 76 57 87 28 135 32 192 16z
m-1657 -22 c12 -46 6 -56 -49 -83 -30 -14 -55 -31 -55 -36 0 -5 20 2 43 16 55
31 58 31 96 -4 l30 -29 -46 -23 c-26 -14 -48 -30 -51 -37 -2 -7 13 -1 33 13
50 33 92 33 107 -1 11 -23 8 -28 -33 -65 l-44 -40 42 26 c46 29 78 27 88 -5 8
-24 -7 -52 -57 -106 -59 -64 -90 -62 -163 12 -30 31 -55 62 -55 69 0 8 -10 22
-23 32 -37 29 -39 40 -18 89 25 55 26 68 7 61 -9 -4 -16 3 -19 19 -2 13 0 24
4 24 5 0 9 7 9 16 0 8 13 29 29 45 24 23 38 29 74 29 38 0 46 -3 51 -22z
m2286 -406 c146 -101 273 -192 284 -202 18 -17 17 -19 -3 -65 -24 -55 -87
-141 -109 -150 -18 -7 -95 42 -87 55 3 5 0 12 -6 16 -8 4 -9 3 -5 -4 14 -23
-8 -11 -80 44 -67 52 -79 64 -75 86 0 4 -6 5 -14 2 -16 -7 -157 95 -149 107 3
5 -2 6 -10 3 -15 -6 -21 6 -17 29 1 5 -3 6 -8 3 -10 -6 -26 44 -54 169 -14 61
-14 73 -1 98 18 34 -24 58 334 -191z m-362 -197 c41 -18 122 -92 122 -112 0
-7 -6 -13 -12 -14 -10 0 -10 -2 0 -6 6 -2 12 -20 12 -39 0 -30 -3 -34 -27 -35
-26 -2 -26 -2 -4 -6 21 -4 23 -8 17 -46 -4 -23 -11 -43 -16 -45 -5 -2 -7 -9
-4 -16 6 -17 -40 -110 -85 -168 -28 -36 -43 -47 -66 -49 -27 -1 -28 -2 -7 -7
22 -7 20 -9 -29 -57 -28 -27 -62 -67 -75 -87 -20 -31 -31 -38 -57 -39 -24 0
-27 -2 -14 -8 24 -9 10 -22 -57 -50 -85 -37 -161 -25 -215 33 l-24 26 82 -30
c45 -17 94 -30 109 -29 18 0 9 5 -26 13 -29 8 -81 26 -117 40 -51 22 -66 34
-74 58 -21 58 -15 59 81 13 50 -25 99 -45 107 -44 9 0 -1 7 -21 14 -21 8 -67
30 -102 50 -60 34 -64 38 -61 67 3 17 6 33 9 35 2 2 26 -12 54 -31 49 -36 121
-71 128 -63 3 2 -17 13 -43 24 -57 24 -116 71 -106 85 3 7 1 8 -5 4 -15 -9
-15 -1 -2 24 10 18 14 17 83 -19 39 -22 83 -42 97 -45 14 -4 1 5 -27 18 -29
14 -70 37 -90 52 -21 16 -39 29 -40 29 -7 3 11 45 19 45 5 0 7 -4 4 -8 -2 -4
3 -8 12 -9 9 0 54 -17 99 -37 46 -21 100 -39 120 -42 28 -4 19 2 -32 19 -90
31 -203 85 -207 100 -2 7 -1 31 2 54 l5 43 45 -30 c66 -45 230 -111 269 -109
9 0 -24 14 -72 30 -82 27 -213 95 -235 122 -12 14 14 87 31 87 5 0 24 -11 41
-24 37 -28 101 -61 136 -70 14 -4 -9 11 -50 33 -41 22 -86 49 -99 59 l-24 19
23 31 23 32 35 -22 c60 -37 137 -78 147 -78 6 0 -28 22 -74 48 -47 27 -87 54
-89 60 -1 5 16 21 38 35 l42 25 69 -41 c38 -22 72 -37 75 -34 4 3 -23 21 -60
39 -36 18 -66 36 -66 39 0 4 23 16 51 27 l52 19 55 -34 c31 -18 61 -33 66 -33
6 0 -13 14 -41 30 -29 17 -53 35 -53 40 0 16 107 12 148 -5z m-1382 -495 c45
-25 125 -103 124 -119 -1 -3 -30 -28 -65 -56 -35 -27 -130 -119 -211 -202 -81
-84 -152 -153 -158 -153 -14 0 -96 141 -96 165 0 9 20 46 45 81 25 34 45 68
45 75 0 7 -18 32 -41 55 l-41 42 69 44 c37 24 74 48 81 52 10 6 12 -7 6 -68
-8 -89 4 -99 31 -25 10 29 36 71 60 95 51 54 79 56 151 14z m669 -46 c42 -7
37 -24 -7 -24 l-32 0 28 -29 c24 -25 26 -31 15 -55 -16 -34 -5 -44 21 -21 18
17 25 17 53 7 21 -8 33 -9 35 -2 2 6 15 -13 30 -42 14 -29 29 -54 34 -56 4 -2
8 -13 8 -25 0 -18 2 -19 10 -7 7 11 10 11 10 2 0 -8 5 -10 13 -6 6 4 8 3 4 -1
-9 -10 -98 -15 -93 -6 2 3 -18 6 -45 6 -27 0 -49 -3 -49 -7 0 -4 -10 -8 -22
-10 -20 -3 -16 -7 22 -26 25 -13 35 -21 23 -19 -15 4 -23 0 -23 -9 0 -10 -8
-12 -32 -7 -18 3 -36 10 -39 16 -4 6 -9 5 -13 -1 -3 -5 -20 -8 -38 -7 -18 2
-39 -2 -47 -9 -11 -8 -13 -8 -8 1 4 6 3 22 -2 35 l-10 23 -1 -25 c0 -22 -2
-23 -11 -7 -5 9 -7 22 -3 29 4 6 3 8 -3 5 -17 -11 -34 18 -29 47 3 15 1 24 -5
21 -5 -4 -7 -11 -4 -16 11 -17 -14 -9 -27 9 -7 9 -22 22 -32 27 -10 6 -18 14
-17 18 0 4 1 18 1 32 0 28 57 98 73 88 6 -3 7 -1 3 5 -3 6 6 35 20 65 l27 54
63 -33 c35 -18 79 -36 99 -40z m582 -221 c-10 -210 -88 -378 -242 -521 -139
-130 -308 -196 -500 -196 -138 1 -221 20 -345 82 -76 38 -111 63 -180 132
l-85 84 54 6 c44 5 57 11 80 38 22 27 33 32 67 32 26 0 51 7 67 20 l26 20 25
-25 c14 -14 26 -34 26 -43 0 -41 24 -96 57 -133 37 -40 99 -79 127 -79 8 0 30
-22 48 -50 38 -58 48 -63 98 -50 38 10 100 63 100 86 0 7 -13 38 -30 69 -16
31 -30 60 -30 65 0 4 20 13 45 20 38 11 43 15 35 31 -15 27 -14 28 38 52 73
34 177 145 222 239 10 21 10 21 -3 6 -8 -10 -17 -18 -21 -18 -3 0 -2 8 3 18 5
9 12 25 15 35 7 22 46 23 46 0 0 -10 -7 -37 -16 -60 -13 -32 -14 -51 -7 -76
l9 -32 27 46 c15 26 33 70 40 99 9 38 18 56 35 63 12 6 24 8 27 5 3 -3 -1 -38
-9 -79 -13 -66 -24 -105 -51 -174 -16 -41 14 1 43 60 29 59 59 154 65 206 2
21 81 127 96 129 2 0 1 -48 -2 -107z m-882 -184 c25 -91 23 -93 -50 -118 -36
-11 -67 -21 -70 -21 -2 0 -11 14 -20 30 -9 17 -11 30 -5 30 23 0 90 74 102
111 14 48 24 40 43 -32z"/>
<path d="M5331 4349 c-2 -41 -32 -62 -76 -53 l-38 7 7 -44 c4 -24 11 -48 17
-53 12 -13 12 -73 -1 -81 -6 -4 -10 -12 -8 -18 3 -16 -10 -69 -34 -148 -23
-72 -19 -131 6 -110 40 33 84 197 88 324 1 42 5 77 9 77 12 0 24 -88 23 -175
0 -83 -21 -192 -49 -259 -25 -59 -1 -34 33 36 53 110 67 171 64 294 -1 77 -8
129 -21 170 -13 41 -19 51 -20 33z"/>
<path d="M4901 4258 c-6 -16 -15 -28 -21 -28 -6 0 -9 -4 -6 -9 3 -4 -6 -6 -19
-3 -30 5 -32 -8 -5 -33 14 -12 17 -25 13 -46 -6 -33 2 -36 35 -14 19 14 24 14
47 -1 31 -20 42 -12 27 20 -9 20 -7 27 14 47 26 25 18 39 -23 39 -13 0 -23 4
-23 8 0 5 -6 17 -14 28 -14 18 -15 18 -25 -8z"/>
<path d="M3314 3897 c17 -13 15 -16 -24 -50 -66 -56 -213 -125 -303 -142 -110
-21 -203 -20 -211 1 -9 22 -3 27 47 35 l42 6 -38 2 c-55 2 -91 -36 -83 -87 13
-72 145 -161 223 -149 25 3 24 4 -7 6 -19 0 -64 15 -100 32 -59 28 -63 32 -47
44 18 13 61 9 52 -5 -6 -10 50 -20 145 -27 105 -6 169 18 239 92 29 30 56 53
61 50 4 -3 6 4 3 16 -5 17 -2 20 13 17 12 -2 18 -11 16 -23 -2 -20 -2 -20 10
0 6 11 12 48 12 82 0 52 -4 67 -24 88 -13 14 -28 25 -34 25 -5 0 -2 -6 8 -13z"/>
<path d="M3302 3170 c-90 -21 -150 -131 -139 -252 9 -102 63 -153 155 -144 75
7 131 41 160 99 60 116 25 252 -75 293 -35 15 -51 16 -101 4z"/>
<path d="M1161 2774 c-11 -15 -18 -30 -16 -34 3 -5 1 -11 -5 -15 -5 -3 -10
-14 -10 -25 0 -10 -7 -20 -15 -24 -8 -3 -15 -12 -15 -21 0 -8 -4 -15 -9 -15
-6 0 -9 -9 -8 -20 1 -11 5 -20 9 -20 4 0 8 -8 8 -17 1 -11 6 -7 14 12 l13 30
-2 -30 c-1 -16 -5 -38 -9 -47 -4 -9 -3 -25 3 -35 10 -17 10 -17 12 2 1 11 1
23 0 28 0 4 3 7 7 7 5 0 7 33 4 74 -2 41 0 76 5 79 4 3 8 -24 7 -58 0 -54 1
-61 12 -47 8 9 14 22 14 27 0 6 12 21 25 34 14 13 23 26 20 29 -3 3 -12 -3
-20 -14 -8 -10 -15 -14 -15 -7 0 24 67 41 81 20 3 -5 9 -1 12 8 4 9 3 13 -3
10 -6 -3 -10 -1 -10 4 0 6 5 11 10 11 6 0 4 11 -5 24 -8 13 -13 31 -9 40 3 9
1 16 -6 16 -6 0 -9 -4 -6 -9 3 -5 -5 -8 -19 -7 -14 0 -25 4 -25 9 0 17 -30 5
-49 -19z"/>
<path d="M1515 2490 c-4 -12 -19 -22 -40 -26 l-34 -6 24 -24 c19 -19 23 -31
18 -54 -6 -33 2 -37 31 -15 17 13 22 12 47 -2 35 -21 43 -14 29 22 -9 24 -7
29 16 47 28 23 19 38 -23 38 -12 0 -27 9 -33 20 -14 25 -27 26 -35 0z"/>
<path d="M1084 2353 c-6 -24 -30 -37 -46 -27 -7 5 -9 -17 -6 -67 4 -55 13 -91
36 -139 30 -64 100 -157 87 -115 -13 41 -27 117 -22 121 3 3 19 -21 37 -54 30
-57 64 -102 77 -102 3 0 -6 15 -19 33 -58 77 -108 202 -108 267 0 16 -5 32
-11 36 -6 3 -9 14 -6 24 2 10 1 24 -4 31 -7 11 -10 9 -15 -8z"/>
<path d="M4171 2793 c-1 -7 -7 -10 -15 -7 -17 7 -60 -51 -50 -68 5 -8 2 -9
-10 -5 -14 6 -15 3 -6 -13 6 -11 16 -20 23 -20 7 0 4 -5 -6 -11 -10 -6 -24 -8
-32 -5 -7 2 -16 -1 -19 -9 -3 -9 0 -12 8 -9 19 7 31 -15 17 -29 -7 -7 -11 -7
-11 -1 0 6 -6 11 -14 11 -15 0 -16 -21 -1 -34 4 -4 5 -2 0 6 -5 9 -3 12 6 9 8
-3 13 -10 12 -16 -2 -6 4 -9 12 -6 10 4 15 0 15 -15 0 -27 16 -27 23 -1 3 13
1 18 -6 13 -7 -4 -8 0 -4 11 4 10 7 19 7 22 0 2 7 0 17 -3 10 -4 14 -2 10 4
-4 6 13 31 37 57 42 46 43 46 54 24 l11 -23 -3 25 c-14 93 -17 99 -41 90 -16
-6 -25 -5 -29 3 -3 9 -5 9 -5 0z"/>
<path d="M5331 2594 c-1 -45 -33 -71 -70 -57 -23 8 -30 7 -40 -8 -7 -12 -8
-25 -2 -36 7 -15 23 -50 38 -84 1 -3 -4 -17 -12 -32 -8 -15 -17 -48 -21 -74
-3 -27 -15 -70 -25 -98 -20 -54 -24 -92 -10 -113 6 -10 13 -5 29 20 40 65 64
158 70 271 7 145 20 142 37 -9 8 -72 -6 -175 -40 -281 -22 -71 -22 -76 -5 -53
29 37 78 169 89 241 12 74 0 230 -23 299 -14 42 -15 43 -15 14z"/>
<path d="M4701 2411 c-17 -23 -30 -31 -54 -31 l-31 0 27 -28 c22 -23 26 -34
21 -60 -7 -36 1 -39 34 -17 19 14 24 14 46 0 36 -24 56 -5 34 31 -4 6 4 22 17
34 33 31 31 40 -5 40 -23 0 -35 7 -49 31 l-19 30 -21 -30z"/>
</g>
</svg>
